<svg width="505" height="741" viewBox="0 0 505 741" fill="none" xmlns="http://www.w3.org/2000/svg">
<path d="M96.2396 10.3047L53.8114 65.9592L49.672 215.402M96.2396 10.3047L185.235 104.093M96.2396 10.3047L137.633 154.594M49.672 215.402L137.633 154.594M49.672 215.402L12.418 298.883L46.5675 295.791L27.9405 357.63H41.3933M137.633 154.594L165.573 220.555M165.573 220.555L100.379 315.374L133.494 419.468M165.573 220.555V298.883L209.037 327.741M133.494 419.468L131.424 455.54M133.494 419.468L165.573 446.265M131.424 455.54L87.9609 423.591M131.424 455.54L176.957 495.037M87.9609 423.591L32.0798 444.203M87.9609 423.591L56.9159 359.691L41.3933 357.63M32.0798 444.203L41.3933 357.63M32.0798 444.203L49.672 467.908L62.09 557.574L102.449 619.412M102.449 619.412L195.584 511.195M102.449 619.412L248.36 731.751M195.584 511.195L176.957 495.037M195.584 511.195L248.36 529.746M165.573 446.265L176.957 495.037M165.573 446.265L200.758 393.702L209.037 327.741M165.573 446.265H205.932M209.037 327.741L221.455 377.212L205.932 446.265M209.037 327.741L224.559 271.056L211.106 191.697M205.932 446.265L231.803 424.621H248.36M205.932 446.265L202.828 466.877L218.35 488.521L248.36 500.888L276.301 488.521L291.823 465.847L288.248 446.265M248.36 424.621V454.51M248.36 424.621H265.952L288.248 446.265M288.248 446.265H331.147M288.248 446.265L277.336 377.212L286.649 327.741M331.147 446.265L299.067 393.702L286.649 327.741M331.147 446.265L366.331 419.468M331.147 446.265L322.868 490.582M286.649 327.741L332.182 298.883V224.677M286.649 327.741L278.37 272.087L289.754 191.697M332.182 224.677L358.053 157.686M332.182 224.677L399.446 316.404L366.331 419.468M358.053 157.686L402.551 10.3047M358.053 157.686L451.188 218.494M402.551 10.3047L444.979 61.8366L451.188 218.494M402.551 10.3047L312.52 104.093M366.331 419.468L367.366 452.448M367.366 452.448L322.868 490.582M367.366 452.448L412.899 423.591M322.868 490.582L302.172 511.195M302.172 511.195L248.36 529.746M302.172 511.195L394.272 617.351M248.36 529.746V731.751M248.36 731.751L394.272 617.351M394.272 617.351L434.63 556.543L441.874 467.908L462.571 444.203M462.571 444.203L412.899 423.591M462.571 444.203L454.292 357.63M412.899 423.591L440.84 360.722L454.292 357.63M454.292 357.63H470.85L451.188 295.791L486.372 298.883L451.188 218.494M312.52 104.093L289.754 191.697M312.52 104.093L290.788 95.8477H205.932L185.235 104.093M289.754 191.697L251.465 184.483L211.106 191.697M211.106 191.697L185.235 104.093" stroke="white" stroke-width="10"/>
<path d="M186.761 307.139L148.604 302L165.958 271.058L186.761 307.139Z" fill="white"/>
<path d="M129.106 269.433L165.956 271.06L148.602 302.002L129.106 269.433Z" fill="white"/>
<path d="M310.388 307.139L348.545 302L331.19 271.058L310.388 307.139Z" fill="white"/>
<path d="M368.042 269.433L331.192 271.06L348.546 302.002L368.042 269.433Z" fill="white"/>
<ellipse cx="448.082" cy="215.403" rx="11.3832" ry="11.337" fill="white"/>
<ellipse cx="100.379" cy="316.407" rx="11.3832" ry="11.337" fill="white"/>
<ellipse cx="396.336" cy="318.466" rx="11.3832" ry="11.337" fill="white"/>
<ellipse cx="286.653" cy="326.712" rx="11.3832" ry="11.337" fill="white"/>
<ellipse cx="210.075" cy="326.712" rx="11.3832" ry="11.337" fill="white"/>
<ellipse cx="166.61" cy="227.771" rx="11.3832" ry="11.337" fill="white"/>
<ellipse cx="330.114" cy="227.771" rx="11.3832" ry="11.337" fill="white"/>
<ellipse cx="137.633" cy="155.626" rx="11.3832" ry="11.337" fill="white"/>
<ellipse cx="359.086" cy="155.626" rx="11.3832" ry="11.337" fill="white"/>
<ellipse cx="448.082" cy="66.9894" rx="11.3832" ry="11.337" fill="white"/>
<ellipse cx="493.618" cy="299.915" rx="11.3832" ry="11.337" fill="white"/>
<ellipse cx="458.434" cy="295.794" rx="11.3832" ry="11.337" fill="white"/>
<ellipse cx="470.852" cy="357.63" rx="11.3832" ry="11.337" fill="white"/>
<ellipse cx="441.875" cy="466.88" rx="11.3832" ry="11.337" fill="white"/>
<ellipse cx="437.735" cy="557.575" rx="11.3832" ry="11.337" fill="white"/>
<ellipse cx="394.27" cy="617.353" rx="11.3832" ry="11.337" fill="white"/>
<ellipse cx="414.969" cy="423.591" rx="11.3832" ry="11.337" fill="white"/>
<ellipse cx="330.114" cy="445.786" rx="11.3832" ry="11.337" fill="white"/>
<ellipse cx="165.485" cy="445.786" rx="11.3832" ry="11.337" fill="white"/>
<ellipse cx="248.36" cy="529.748" rx="10.3483" ry="10.3064" fill="white"/>
<ellipse cx="251.465" cy="184.485" rx="11.3832" ry="11.337" fill="white"/>
<ellipse cx="313.555" cy="106.157" rx="11.3832" ry="11.337" fill="white"/>
<ellipse cx="183.164" cy="106.157" rx="11.3832" ry="11.337" fill="white"/>
<ellipse cx="402.551" cy="11.337" rx="11.3832" ry="11.337" fill="white"/>
<ellipse cx="96.2386" cy="11.337" rx="11.3832" ry="11.337" fill="white"/>
<ellipse cx="52.7777" cy="66.9933" rx="11.3832" ry="11.337" fill="white"/>
<ellipse cx="50.7074" cy="215.403" rx="11.3832" ry="11.337" fill="white"/>
<ellipse cx="11.3832" cy="299.915" rx="11.3832" ry="11.337" fill="white"/>
<ellipse cx="44.4965" cy="295.794" rx="11.3832" ry="11.337" fill="white"/>
<ellipse cx="23.8011" cy="357.63" rx="11.3832" ry="11.337" fill="white"/>
<ellipse cx="83.8246" cy="423.591" rx="11.3832" ry="11.337" fill="white"/>
<ellipse cx="48.6371" cy="466.88" rx="11.3832" ry="11.337" fill="white"/>
<ellipse cx="61.0551" cy="557.575" rx="11.3832" ry="11.337" fill="white"/>
<ellipse cx="100.379" cy="617.353" rx="11.3832" ry="11.337" fill="white"/>
<ellipse cx="248.557" cy="729.621" rx="11.2132" ry="11.1677" fill="white"/>
<path d="M258.708 424.623C258.708 430.315 254.075 434.929 248.36 434.929C242.645 434.929 238.012 430.315 238.012 424.623C238.012 418.931 242.645 414.316 248.36 414.316C254.075 414.316 258.708 418.931 258.708 424.623Z" fill="white"/>
</svg>
